<?xml version="1.0" encoding="UTF-8" standalone="no"?>
<svg
   xmlns:dc="http://purl.org/dc/elements/1.1/"
   xmlns:cc="http://creativecommons.org/ns#"
   xmlns:rdf="http://www.w3.org/1999/02/22-rdf-syntax-ns#"
   xmlns:svg="http://www.w3.org/2000/svg"
   xmlns="http://www.w3.org/2000/svg"
   xmlns:sodipodi="http://sodipodi.sourceforge.net/DTD/sodipodi-0.dtd"
   xmlns:inkscape="http://www.inkscape.org/namespaces/inkscape"
   viewBox="0 0 16 16"
   id="svg2"
   version="1.1"
   inkscape:version="0.92.0 r"
   sodipodi:docname="media-view-subtitles-symbolic.svg"
   width="17.066668"
   height="17.066668">
  <metadata
     id="metadata10">
    <rdf:RDF>
      <cc:Work
         rdf:about="">
        <dc:format>image/svg+xml</dc:format>
        <dc:type
           rdf:resource="http://purl.org/dc/dcmitype/StillImage" />
      </cc:Work>
    </rdf:RDF>
  </metadata>
  <sodipodi:namedview
     pagecolor="#ffffff"
     bordercolor="#666666"
     borderopacity="1"
     objecttolerance="10"
     gridtolerance="10"
     guidetolerance="10"
     inkscape:pageopacity="0"
     inkscape:pageshadow="2"
     inkscape:window-width="1366"
     inkscape:window-height="739"
     id="namedview8"
     showgrid="false"
     inkscape:zoom="41.1875"
     inkscape:cx="3.6783005"
     inkscape:cy="8"
     inkscape:current-layer="svg2"
     inkscape:window-x="0"
     inkscape:window-y="0"
     inkscape:window-maximized="1" />
  <defs
     id="defs3051">
    <style
       type="text/css"
       id="current-color-scheme">
      .ColorScheme-Text {
        color:#bebebe;
      }
      </style>
  </defs>
  <path
     style="color:#bebebe;fill:#2a8dd3;fill-opacity:1;stroke:none"
     class="ColorScheme-Text"
     d="M 2.8571429,3.7140713 C 2.3822857,3.7140713 2,4.0963571 2,4.5712142 V 11.428357 C 2,11.903214 2.3822857,12.2855 2.8571429,12.2855 H 13.142857 C 13.617714,12.2855 14,11.903214 14,11.428357 V 4.5712142 C 14,4.0963571 13.617714,3.7140713 13.142857,3.7140713 Z M 3.7142857,7.9997856 H 5.4285714 V 8.8569285 H 3.7142857 Z m 2.5714286,0 H 9.7142857 V 8.8569285 H 6.2857143 Z m 4.2857147,0 h 1.714285 V 8.8569285 H 10.571429 Z M 3.7142857,9.714071 h 0.8571429 v 0.857143 H 3.7142857 Z m 1.7142857,0 h 3.4285715 v 0.857143 H 5.4285714 Z m 4.2857143,0 h 2.5714283 v 0.857143 H 9.7142857 Z"
     id="path6"
     inkscape:connector-curvature="0" />
</svg>
